<?xml version="1.0" standalone="no"?>
<!DOCTYPE svg PUBLIC "-//W3C//DTD SVG 20010904//EN"
 "http://www.w3.org/TR/2001/REC-SVG-20010904/DTD/svg10.dtd">
<svg version="1.0" xmlns="http://www.w3.org/2000/svg"
 width="512.000000pt" height="512.000000pt" viewBox="0 0 512.000000 512.000000"
 preserveAspectRatio="xMidYMid meet">
<metadata>
Created by potrace 1.14, written by Peter Selinger 2001-2017
</metadata>
<g transform="translate(0.000000,512.000000) scale(0.100000,-0.100000)"
fill="#000000" stroke="none">
<path d="M2378 5116 c-1 -2 -39 -6 -82 -10 -44 -4 -82 -8 -85 -10 -3 -2 -31
-7 -61 -11 -30 -3 -75 -11 -100 -17 -25 -5 -56 -12 -70 -14 -52 -10 -236 -66
-326 -100 -412 -154 -826 -454 -1084 -784 -19 -25 -37 -47 -40 -50 -7 -7 -45
-61 -105 -150 -176 -260 -312 -589 -374 -905 -40 -200 -46 -267 -45 -515 0
-183 3 -241 19 -345 3 -16 7 -43 9 -60 37 -265 165 -623 307 -860 10 -16 27
-46 38 -65 19 -36 131 -195 166 -239 162 -197 306 -337 489 -475 321 -240 732
-415 1112 -471 22 -4 50 -8 64 -11 76 -14 179 -19 390 -18 207 1 253 4 382 27
334 60 612 162 893 330 688 411 1152 1137 1232 1927 12 118 9 506 -5 600 -98
664 -406 1223 -902 1636 -387 322 -828 513 -1340 578 -89 11 -471 21 -482 12z"/>
</g>
</svg>
