<?xml version="1.0" encoding="utf-8"?>
<!-- Generator: Adobe Illustrator 16.0.4, SVG Export Plug-In . SVG Version: 6.00 Build 0)  -->
<!DOCTYPE svg PUBLIC "-//W3C//DTD SVG 1.1//EN" "http://www.w3.org/Graphics/SVG/1.1/DTD/svg11.dtd">
<svg version="1.1" id="Calque_1" xmlns="http://www.w3.org/2000/svg" xmlns:xlink="http://www.w3.org/1999/xlink" x="0px" y="0px"
	 width="283.46px" height="114.329px" viewBox="0 0 283.46 114.329" enable-background="new 0 0 283.46 114.329"
	 xml:space="preserve">
<g>
	<g>
		<g>
			<path fill="#FFFFFF" d="M55.923,58.363l1.066,5.359l1.305-5.123l7.495-25.447h2.632l7.4,25.447l1.28,5.171l1.139-5.407
				l6.237-25.211h2.988l-8.847,34.531h-2.798L67.994,40.67l-0.877-3.415l-0.854,3.415l-8.016,27.014h-2.799l-8.823-34.531h2.988
				L55.923,58.363z"/>
			<path fill="#BA2229" d="M101.624,68.158c-2.182,0-4.154-0.538-5.917-1.613s-3.135-2.573-4.115-4.494s-1.47-4.075-1.47-6.463
				v-1.02c0-2.467,0.478-4.688,1.435-6.665c0.956-1.976,2.289-3.529,3.996-4.66c1.708-1.13,3.558-1.695,5.55-1.695
				c3.115,0,5.586,1.063,7.412,3.189c1.826,2.127,2.739,5.032,2.739,8.716v1.59h-18.31v0.545c0,2.909,0.834,5.333,2.502,7.27
				s3.767,2.905,6.297,2.905c1.518,0,2.857-0.276,4.02-0.83s2.218-1.438,3.167-2.656l1.778,1.352
				C108.621,66.648,105.593,68.158,101.624,68.158z M101.103,43.967c-2.135,0-3.934,0.782-5.396,2.348
				c-1.463,1.565-2.352,3.669-2.668,6.309h15.393v-0.308c-0.08-2.467-0.783-4.475-2.111-6.024S103.253,43.967,101.103,43.967z"/>
			<path fill="#FFFFFF" d="M137.438,55.113c0,4.001-0.886,7.175-2.656,9.522c-1.771,2.349-4.15,3.522-7.139,3.522
				c-3.574,0-6.277-1.328-8.111-3.984l-0.119,3.51h-2.656V31.255h2.822v14.49c1.803-2.798,4.475-4.197,8.017-4.197
				c3.036,0,5.435,1.158,7.198,3.475c1.763,2.316,2.645,5.538,2.645,9.664V55.113z M134.591,54.615c0-3.383-0.656-5.996-1.968-7.838
				c-1.312-1.842-3.163-2.763-5.55-2.763c-1.818,0-3.36,0.446-4.625,1.34c-1.266,0.894-2.222,2.202-2.87,3.925v11.574
				c1.424,3.226,3.938,4.838,7.542,4.838c2.34,0,4.17-0.925,5.491-2.774C133.931,61.066,134.591,58.3,134.591,54.615z"/>
			<path fill="#FFFFFF" d="M163.905,59.193c0-1.913-0.672-3.428-2.016-4.542c-1.344-1.115-3.803-2.174-7.376-3.178
				s-6.183-2.1-7.826-3.285c-2.341-1.676-3.511-3.874-3.511-6.594c0-2.64,1.087-4.786,3.262-6.438
				c2.174-1.652,4.952-2.479,8.336-2.479c2.293,0,4.344,0.442,6.154,1.328s3.214,2.119,4.21,3.699
				c0.996,1.582,1.494,3.345,1.494,5.289h-2.94c0-2.362-0.807-4.262-2.419-5.697c-1.613-1.435-3.779-2.152-6.499-2.152
				c-2.641,0-4.743,0.59-6.309,1.77s-2.348,2.72-2.348,4.62c0,1.758,0.703,3.191,2.11,4.3s3.66,2.087,6.76,2.934
				c3.099,0.847,5.446,1.726,7.044,2.635c1.597,0.909,2.798,1.996,3.604,3.261s1.21,2.76,1.21,4.482c0,2.72-1.088,4.901-3.262,6.546
				s-5.039,2.467-8.597,2.467c-2.436,0-4.669-0.436-6.7-1.305c-2.032-0.869-3.573-2.087-4.625-3.652s-1.577-3.359-1.577-5.384h2.917
				c0,2.436,0.909,4.356,2.728,5.764s4.237,2.11,7.258,2.11c2.688,0,4.846-0.593,6.475-1.778
				C163.091,62.727,163.905,61.153,163.905,59.193z"/>
			<path fill="#FFFFFF" d="M188.975,64.435c-1.708,2.482-4.436,3.724-8.183,3.724c-2.735,0-4.814-0.795-6.237-2.384
				s-2.15-3.94-2.183-7.056V42.022h2.823v16.341c0,4.886,1.976,7.328,5.929,7.328c4.11,0,6.712-1.699,7.803-5.1V42.022h2.846v25.661
				h-2.751L188.975,64.435z"/>
			<path fill="#FFFFFF" d="M211.008,44.441c-0.602-0.11-1.242-0.166-1.922-0.166c-1.771,0-3.269,0.494-4.494,1.482
				s-2.099,2.423-2.62,4.304v17.622h-2.822V42.022h2.774l0.048,4.079c1.502-3.036,3.913-4.554,7.233-4.554
				c0.79,0,1.415,0.103,1.873,0.309L211.008,44.441z"/>
			<path fill="#FFFFFF" d="M213.901,54.615c0-4.016,0.89-7.197,2.668-9.546c1.779-2.348,4.194-3.521,7.245-3.521
				c3.494,0,6.15,1.392,7.97,4.174l0.142-3.699h2.656v25.14c0,3.304-0.925,5.921-2.774,7.85c-1.85,1.93-4.356,2.894-7.519,2.894
				c-1.787,0-3.49-0.399-5.11-1.197c-1.621-0.799-2.898-1.862-3.831-3.19l1.589-1.707c2.008,2.467,4.396,3.699,7.163,3.699
				c2.371,0,4.222-0.699,5.55-2.099s2.016-3.34,2.063-5.822v-3.226c-1.818,2.53-4.467,3.795-7.945,3.795
				c-2.973,0-5.36-1.187-7.163-3.558c-1.802-2.372-2.703-5.573-2.703-9.605V54.615z M216.771,55.113
				c0,3.273,0.656,5.854,1.969,7.744s3.162,2.834,5.55,2.834c3.494,0,5.969-1.565,7.424-4.696v-11.93
				c-0.664-1.644-1.621-2.896-2.87-3.759c-1.249-0.861-2.751-1.292-4.506-1.292c-2.388,0-4.245,0.937-5.573,2.81
				C217.436,48.698,216.771,51.461,216.771,55.113z"/>
		</g>
	</g>
	<g>
		<g>
			<path fill="#FFFFFF" d="M62.865,80.319c0,0.877-0.151,1.646-0.455,2.31c-0.303,0.663-0.735,1.173-1.299,1.531
				c-0.562,0.357-1.212,0.536-1.949,0.536c-1.112,0-2.011-0.398-2.696-1.194c-0.685-0.796-1.026-1.87-1.026-3.222v-0.982
				c0-0.867,0.153-1.637,0.461-2.306c0.308-0.67,0.742-1.185,1.305-1.544c0.563-0.36,1.211-0.54,1.943-0.54
				c0.733,0,1.38,0.177,1.94,0.53c0.561,0.353,0.993,0.853,1.299,1.498c0.305,0.646,0.465,1.394,0.478,2.244V80.319z M62.061,79.285
				c0-1.147-0.26-2.046-0.778-2.695c-0.52-0.65-1.23-0.976-2.134-0.976c-0.885,0-1.591,0.326-2.116,0.979s-0.788,1.562-0.788,2.731
				v0.995c0,1.13,0.262,2.024,0.785,2.686s1.234,0.991,2.133,0.991c0.911,0,1.622-0.326,2.133-0.979
				c0.511-0.651,0.766-1.56,0.766-2.725V79.285z"/>
			<path fill="#FFFFFF" d="M65.63,77.486l0.026,1.21c0.266-0.436,0.598-0.769,0.994-0.998c0.397-0.229,0.835-0.343,1.315-0.343
				c0.759,0,1.323,0.214,1.694,0.641c0.371,0.428,0.559,1.069,0.562,1.924v4.646h-0.778v-4.652
				c-0.004-0.632-0.139-1.104-0.402-1.413s-0.686-0.465-1.266-0.465c-0.484,0-0.913,0.152-1.286,0.455
				c-0.373,0.304-0.648,0.712-0.828,1.227v4.849h-0.778v-7.079H65.63z"/>
			<path fill="#FFFFFF" d="M73.296,84.565h-0.785v-10.05h0.785V84.565z"/>
			<path fill="#FFFFFF" d="M75.55,75.441c0-0.147,0.048-0.272,0.145-0.374c0.096-0.102,0.227-0.152,0.393-0.152
				c0.165,0,0.298,0.051,0.396,0.152c0.099,0.102,0.147,0.227,0.147,0.374s-0.049,0.271-0.147,0.37
				c-0.098,0.101-0.23,0.15-0.396,0.15c-0.166,0-0.297-0.05-0.393-0.15C75.598,75.712,75.55,75.589,75.55,75.441z M76.473,84.565
				h-0.785v-7.079h0.785V84.565z"/>
			<path fill="#FFFFFF" d="M79.52,77.486l0.026,1.21c0.266-0.436,0.598-0.769,0.994-0.998c0.397-0.229,0.835-0.343,1.315-0.343
				c0.759,0,1.323,0.214,1.694,0.641c0.371,0.428,0.559,1.069,0.562,1.924v4.646h-0.778v-4.652
				c-0.004-0.632-0.139-1.104-0.402-1.413s-0.686-0.465-1.266-0.465c-0.484,0-0.913,0.152-1.286,0.455
				c-0.373,0.304-0.648,0.712-0.828,1.227v4.849h-0.778v-7.079H79.52z"/>
			<path fill="#FFFFFF" d="M89.049,84.696c-0.602,0-1.146-0.148-1.632-0.445c-0.486-0.296-0.865-0.71-1.136-1.239
				c-0.271-0.53-0.405-1.124-0.405-1.783v-0.281c0-0.681,0.132-1.293,0.396-1.839c0.265-0.545,0.632-0.974,1.103-1.285
				c0.472-0.312,0.981-0.468,1.531-0.468c0.859,0,1.541,0.293,2.045,0.88s0.756,1.388,0.756,2.404v0.438h-5.052v0.15
				c0,0.803,0.23,1.471,0.69,2.006c0.46,0.534,1.039,0.801,1.737,0.801c0.419,0,0.788-0.076,1.109-0.229
				c0.32-0.152,0.611-0.397,0.873-0.733l0.491,0.373C90.979,84.28,90.145,84.696,89.049,84.696z M88.905,78.022
				c-0.589,0-1.085,0.216-1.488,0.647c-0.403,0.433-0.649,1.013-0.736,1.741h4.246v-0.086c-0.021-0.68-0.216-1.234-0.582-1.661
				C89.979,78.236,89.498,78.022,88.905,78.022z"/>
			<path fill="#FFFFFF" d="M101.392,83.669c-0.471,0.685-1.223,1.027-2.257,1.027c-0.755,0-1.328-0.219-1.721-0.657
				s-0.594-1.088-0.603-1.947v-4.605h0.779v4.508c0,1.348,0.545,2.021,1.636,2.021c1.134,0,1.852-0.469,2.152-1.406v-5.123h0.785
				v7.079h-0.759L101.392,83.669z"/>
			<path fill="#FFFFFF" d="M105.118,77.486l0.026,1.21c0.266-0.436,0.598-0.769,0.994-0.998c0.397-0.229,0.835-0.343,1.315-0.343
				c0.759,0,1.323,0.214,1.694,0.641c0.371,0.428,0.559,1.069,0.562,1.924v4.646h-0.778v-4.652
				c-0.004-0.632-0.139-1.104-0.402-1.413s-0.686-0.465-1.266-0.465c-0.484,0-0.913,0.152-1.286,0.455
				c-0.373,0.304-0.648,0.712-0.828,1.227v4.849h-0.778v-7.079H105.118z"/>
			<path fill="#FFFFFF" d="M111.86,75.441c0-0.147,0.048-0.272,0.145-0.374c0.096-0.102,0.227-0.152,0.393-0.152
				c0.165,0,0.298,0.051,0.396,0.152c0.099,0.102,0.147,0.227,0.147,0.374s-0.049,0.271-0.147,0.37
				c-0.098,0.101-0.23,0.15-0.396,0.15c-0.166,0-0.297-0.05-0.393-0.15C111.908,75.712,111.86,75.589,111.86,75.441z
				 M112.783,84.565h-0.785v-7.079h0.785V84.565z"/>
			<path fill="#FFFFFF" d="M117.289,83.485l2.152-5.999h0.806l-2.644,7.079h-0.635l-2.656-7.079h0.805L117.289,83.485z"/>
			<path fill="#FFFFFF" d="M124.358,84.696c-0.602,0-1.146-0.148-1.632-0.445c-0.486-0.296-0.865-0.71-1.136-1.239
				c-0.271-0.53-0.405-1.124-0.405-1.783v-0.281c0-0.681,0.132-1.293,0.396-1.839c0.265-0.545,0.632-0.974,1.103-1.285
				c0.472-0.312,0.981-0.468,1.531-0.468c0.859,0,1.541,0.293,2.045,0.88s0.756,1.388,0.756,2.404v0.438h-5.052v0.15
				c0,0.803,0.23,1.471,0.69,2.006c0.46,0.534,1.039,0.801,1.737,0.801c0.419,0,0.788-0.076,1.109-0.229
				c0.32-0.152,0.611-0.397,0.873-0.733l0.491,0.373C126.289,84.28,125.454,84.696,124.358,84.696z M124.215,78.022
				c-0.589,0-1.085,0.216-1.488,0.647c-0.403,0.433-0.649,1.013-0.736,1.741h4.246v-0.086c-0.021-0.68-0.216-1.234-0.582-1.661
				C125.288,78.236,124.808,78.022,124.215,78.022z"/>
			<path fill="#FFFFFF" d="M131.986,78.153c-0.166-0.03-0.343-0.046-0.53-0.046c-0.488,0-0.901,0.137-1.239,0.409
				s-0.579,0.668-0.724,1.188v4.861h-0.778v-7.079h0.766l0.013,1.125c0.415-0.838,1.08-1.256,1.996-1.256
				c0.218,0,0.391,0.028,0.517,0.085L131.986,78.153z"/>
			<path fill="#FFFFFF" d="M137.637,82.767c0-0.389-0.156-0.7-0.468-0.937c-0.312-0.235-0.782-0.419-1.41-0.553
				c-0.628-0.133-1.115-0.285-1.463-0.458c-0.347-0.172-0.604-0.383-0.771-0.631c-0.168-0.249-0.252-0.55-0.252-0.903
				c0-0.559,0.233-1.02,0.7-1.384s1.064-0.546,1.793-0.546c0.789,0,1.423,0.195,1.9,0.585c0.478,0.391,0.717,0.9,0.717,1.528h-0.785
				c0-0.415-0.174-0.759-0.521-1.034c-0.347-0.274-0.784-0.412-1.312-0.412c-0.516,0-0.929,0.114-1.24,0.344
				c-0.312,0.229-0.468,0.526-0.468,0.893c0,0.354,0.13,0.627,0.39,0.821c0.259,0.194,0.732,0.372,1.419,0.533
				c0.688,0.162,1.202,0.334,1.545,0.517c0.342,0.184,0.596,0.404,0.762,0.661c0.166,0.258,0.249,0.569,0.249,0.936
				c0,0.598-0.241,1.075-0.724,1.434c-0.481,0.357-1.111,0.536-1.887,0.536c-0.825,0-1.493-0.199-2.006-0.599
				s-0.769-0.904-0.769-1.515h0.785c0.03,0.458,0.224,0.814,0.579,1.069c0.355,0.256,0.825,0.383,1.41,0.383
				c0.545,0,0.985-0.119,1.321-0.359S137.637,83.133,137.637,82.767z"/>
			<path fill="#FFFFFF" d="M140.31,75.441c0-0.147,0.048-0.272,0.145-0.374c0.096-0.102,0.227-0.152,0.393-0.152
				c0.165,0,0.298,0.051,0.396,0.152c0.099,0.102,0.147,0.227,0.147,0.374s-0.049,0.271-0.147,0.37
				c-0.098,0.101-0.23,0.15-0.396,0.15c-0.166,0-0.297-0.05-0.393-0.15C140.357,75.712,140.31,75.589,140.31,75.441z
				 M141.232,84.565h-0.785v-7.079h0.785V84.565z"/>
			<path fill="#FFFFFF" d="M144.75,75.674v1.812h1.466v0.641h-1.466v4.723c0,0.394,0.071,0.686,0.213,0.878s0.379,0.288,0.71,0.288
				c0.131,0,0.343-0.021,0.635-0.065l0.033,0.636c-0.206,0.073-0.484,0.11-0.838,0.11c-0.537,0-0.927-0.156-1.171-0.468
				c-0.245-0.312-0.367-0.771-0.367-1.377v-4.725h-1.302v-0.641h1.302v-1.812H144.75z"/>
			<path fill="#FFFFFF" d="M150.257,83.44l2.067-5.954h0.845l-3.023,8.283l-0.156,0.366c-0.389,0.859-0.988,1.289-1.8,1.289
				c-0.188,0-0.389-0.03-0.602-0.092l-0.007-0.647l0.405,0.039c0.384,0,0.695-0.095,0.933-0.284c0.238-0.19,0.439-0.517,0.605-0.979
				l0.347-0.955l-2.67-7.021h0.857L150.257,83.44z"/>
			<path fill="#FFFFFF" d="M157.555,80.921c0-0.681,0.132-1.293,0.396-1.839c0.265-0.545,0.637-0.969,1.119-1.272
				c0.482-0.303,1.028-0.454,1.639-0.454c0.942,0,1.706,0.33,2.29,0.991c0.585,0.66,0.877,1.536,0.877,2.627v0.163
				c0,0.686-0.132,1.301-0.396,1.849s-0.636,0.97-1.115,1.266c-0.48,0.297-1.027,0.445-1.643,0.445c-0.938,0-1.7-0.33-2.287-0.991
				s-0.88-1.536-0.88-2.627V80.921z M158.34,81.137c0,0.847,0.219,1.541,0.657,2.084s1.014,0.814,1.725,0.814
				c0.706,0,1.279-0.271,1.718-0.814c0.438-0.543,0.657-1.26,0.657-2.149v-0.15c0-0.541-0.101-1.036-0.301-1.485
				c-0.201-0.449-0.482-0.797-0.845-1.043c-0.361-0.247-0.776-0.37-1.243-0.37c-0.697,0-1.267,0.273-1.707,0.821
				c-0.441,0.547-0.661,1.264-0.661,2.149V81.137z"/>
			<path fill="#FFFFFF" d="M166.228,84.565v-6.438h-1.171v-0.641h1.171v-0.857c0-0.724,0.185-1.28,0.554-1.669
				c0.368-0.388,0.882-0.582,1.54-0.582c0.297,0,0.574,0.037,0.831,0.11l-0.059,0.648c-0.218-0.052-0.456-0.078-0.713-0.078
				c-0.432,0-0.769,0.135-1.008,0.403c-0.24,0.27-0.36,0.65-0.36,1.145v0.88h1.688v0.641h-1.688v6.438H166.228z"/>
			<path fill="#FFFFFF" d="M174.874,84.565h-0.805v-9.526h0.805V84.565z"/>
			<path fill="#FFFFFF" d="M181.191,80.594h-2.768v3.972h-0.812v-9.526h3.095c1.016,0,1.81,0.246,2.382,0.738
				c0.571,0.492,0.856,1.181,0.856,2.065c0,0.609-0.179,1.147-0.536,1.614c-0.357,0.466-0.838,0.788-1.439,0.967l2.382,4.057v0.085
				h-0.857L181.191,80.594z M178.424,79.913h2.466c0.677,0,1.22-0.192,1.63-0.576c0.409-0.385,0.615-0.883,0.615-1.494
				c0-0.673-0.214-1.195-0.642-1.566s-1.027-0.557-1.8-0.557h-2.27V79.913z"/>
			<path fill="#FFFFFF" d="M193.058,81.595c-0.108,1.004-0.468,1.771-1.076,2.304s-1.419,0.798-2.431,0.798
				c-0.706,0-1.331-0.177-1.874-0.53c-0.543-0.353-0.963-0.854-1.26-1.501c-0.297-0.648-0.447-1.389-0.451-2.222v-1.236
				c0-0.847,0.147-1.597,0.444-2.251s0.724-1.159,1.279-1.515c0.557-0.355,1.196-0.533,1.921-0.533c1.021,0,1.826,0.274,2.417,0.824
				s0.935,1.311,1.03,2.283h-0.811c-0.201-1.618-1.08-2.427-2.637-2.427c-0.864,0-1.552,0.322-2.064,0.969s-0.77,1.539-0.77,2.678
				v1.166c0,1.1,0.25,1.978,0.75,2.632c0.499,0.655,1.174,0.982,2.024,0.982c0.842,0,1.477-0.201,1.904-0.605
				c0.428-0.403,0.691-1.008,0.792-1.815H193.058z"/>
			<path fill="#FFFFFF" d="M200.331,81.89h-4.325l-0.981,2.676h-0.844l3.605-9.526h0.766l3.604,9.526h-0.837L200.331,81.89z
				 M196.255,81.209h3.821l-1.911-5.188L196.255,81.209z"/>
			<path fill="#FFFFFF" d="M203.731,84.565v-9.526h2.663c0.78,0,1.48,0.178,2.1,0.533c0.62,0.355,1.103,0.864,1.449,1.527
				c0.348,0.663,0.521,1.418,0.521,2.265v0.876c0,0.851-0.172,1.605-0.517,2.265c-0.345,0.658-0.83,1.166-1.456,1.524
				c-0.626,0.357-1.345,0.536-2.156,0.536H203.731z M204.536,75.72v8.165h1.806c1.003,0,1.808-0.333,2.414-0.998
				c0.606-0.666,0.91-1.566,0.91-2.701v-0.839c0-1.096-0.299-1.973-0.896-2.632s-1.385-0.991-2.362-0.995H204.536z"/>
		</g>
	</g>
</g>
</svg>
